<?xml version="1.0" standalone="no"?><!DOCTYPE svg PUBLIC "-//W3C//DTD SVG 1.1//EN" "http://www.w3.org/Graphics/SVG/1.1/DTD/svg11.dtd"><svg width="200" height="200" viewBox="0 0 200 200" version="1.1" xmlns="http://www.w3.org/2000/svg" xmlns:xlink="http://www.w3.org/1999/xlink"><defs><style type="text/css"><![CDATA[

]]></style></defs><g class="transform-group"><g transform="scale(0.1953125, 0.1953125)"><path d="M734.865256 914.491443C764.68401 939.892663 810.071735 938.005656 837.797483 910.279911L910.27987 837.797433C937.975151 810.10222 939.861839 764.647861 914.491417 734.865204 914.491417 734.865204 860.359238 683.784074 864.319463 675.250237 872.757476 657.067316 868.419382 645.876897 877.335514 645.163601 902.957258 643.113861 954.200747 639.014384 954.200747 639.014384 993.245108 635.89084 1024 602.461369 1024 563.252852L1024 460.747148C1024 421.58181 993.197701 388.105373 954.200747 384.985616 954.200747 384.985616 879.982997 387.660288 876.862831 379.096056 869.886357 359.947797 858.554343 354.80016 864.294937 348.06112 881.027097 328.419012 914.491417 289.134796 914.491417 289.134796 939.892685 259.315972 938.005618 213.928311 910.27987 186.202567L837.797483 113.720089C810.102202 86.024876 764.647854 84.138146 734.865256 109.508558 734.865256 109.508558 683.805077 163.651461 675.282362 159.695431 657.089549 151.250813 645.905699 155.940572 645.20685 147.204336 643.142669 121.402635 639.014432 69.799232 639.014432 69.799232 635.890852 30.754933 602.461424 0 563.252843 0L460.747157 0C421.581811 0 388.105355 30.802281 384.985568 69.799232 384.985568 69.799232 387.847332 143.956241 379.372784 147.036496 360.126515 154.031965 355.03774 165.648121 348.417517 160.008657 328.656593 143.175291 289.134744 109.508558 289.134744 109.508558 259.31599 84.107338 213.928265 85.994345 186.202517 113.720089L113.72013 186.202567C86.024849 213.89778 84.138161 259.352139 109.508583 289.134796 109.508583 289.134796 163.760356 339.981229 159.846906 348.391641 151.334811 366.685213 156.11411 378.080424 147.464723 378.77238 121.576233 380.843458 69.799253 384.985616 69.799253 384.985616 30.754892 388.10916 0 421.538631 0 460.747148L0 563.252852C0 602.41819 30.802299 635.894627 69.799253 639.014384 69.799253 639.014384 144.888162 638.766631 147.371804 645.546018 154.3034 664.46694 165.696853 668.905093 160.081667 675.49676 143.223972 695.286242 109.508583 734.865204 109.508583 734.865204 84.107315 764.684028 85.994382 810.071689 113.72013 837.797433L186.202517 910.279911C213.897798 937.975124 259.352146 939.861854 289.134744 914.491443 289.134744 914.491443 340.180259 860.341108 348.695388 864.294232 366.895155 872.743451 378.520462 873.385753 378.788978 876.743557 380.85455 902.562628 384.985568 954.200768 384.985568 954.200768 388.109148 993.245068 421.538576 1024 460.747157 1024L563.252843 1024C602.418189 1024 635.894645 993.197718 639.014432 954.200768 639.014432 954.200768 636.916496 879.795381 645.757029 876.550863 656.060871 872.769267 666.190633 868.552411 676.122042 863.913606 684.355508 860.067848 734.865256 914.491443 734.865256 914.491443ZM686.002631 769.393262 662.123457 782.669475C641.611978 794.073348 619.854886 803.109597 597.222084 809.577654L570.962931 817.082053 568.785098 844.30549 560.496008 947.919298C560.655676 945.922887 561.407874 945.23077 563.252843 945.23077L460.747157 945.23077C462.546615 945.23077 463.347864 945.967938 463.503992 947.919298L455.214902 844.30549 453.037069 817.082053 426.777916 809.577654C404.145114 803.109597 382.388022 794.073348 361.876543 782.669475L337.997369 769.393262 317.199044 787.110409 238.055601 854.528899C239.576051 853.233661 240.595121 853.27596 241.900784 854.581654L169.418398 782.099175C170.691951 783.37272 170.737082 784.458323 169.471115 785.944408L236.889632 706.800964 254.606728 686.002574 241.330505 662.123452C229.926684 641.61199 220.890453 619.854944 214.422313 597.222135L206.91791 570.962991 179.694554 568.785116 76.080672 560.49601C78.077092 560.655724 78.76924 561.40793 78.76924 563.252852L78.76924 460.747148C78.76924 462.546605 78.032087 463.34788 76.080672 463.50399L179.694554 455.214884 206.91791 453.037009 214.422313 426.777865C220.890453 404.145056 229.926684 382.38801 241.330505 361.876548L254.606728 337.997426 236.889632 317.199036 169.471115 238.055592C170.766285 239.576087 170.724061 240.595131 169.418398 241.900825L241.900784 169.418346C240.627232 170.69189 239.541665 170.737024 238.055601 169.471101L317.199044 236.889591 337.997369 254.606738 361.876543 241.330525C382.388022 229.926652 404.145114 220.890403 426.777916 214.422346L453.037069 206.917947 455.214902 179.69451 463.503992 76.080702C463.344324 78.077112 462.592126 78.769231 460.747157 78.769231L563.252843 78.769231C561.453385 78.769231 560.652136 78.032062 560.496008 76.080702L568.785098 179.69451 570.962931 206.917947 597.222084 214.422346C619.854886 220.890403 641.611978 229.926652 662.123457 241.330525L686.002631 254.606738 706.800956 236.889591 785.944399 169.471101C784.423949 170.766339 783.404879 170.72404 782.099216 169.418346L854.581602 241.900825C853.308049 240.62728 853.262918 239.541677 854.528885 238.055592L787.110368 317.199036 769.393272 337.997426 782.669495 361.876548C794.073316 382.38801 803.109547 404.145056 809.577687 426.777865L817.08209 453.037009 844.305446 455.214884 947.919328 463.50399C945.922908 463.344276 945.23076 462.59207 945.23076 460.747148L945.23076 563.252852C945.23076 561.453395 945.967913 560.65212 947.919328 560.49601L844.305446 568.785116 817.08209 570.962991 809.577687 597.222135C803.109547 619.854944 794.073316 641.61199 782.669495 662.123452L769.393272 686.002574 787.110368 706.800964 854.528885 785.944408C853.233715 784.423913 853.275939 783.404869 854.581602 782.099175L782.099216 854.581654C783.372768 853.30811 784.458335 853.262976 785.944399 854.528899L706.800956 787.110409 686.002631 769.393262ZM517.626311 697.67033C617.061894 697.67033 697.670289 617.061904 697.670289 517.626373 697.670289 418.190843 617.061894 337.582418 517.626311 337.582418 418.190854 337.582418 337.582459 418.190843 337.582459 517.626373 337.582459 617.061904 418.190854 697.67033 517.626311 697.67033L517.626311 697.67033ZM517.626311 618.901099C461.693914 618.901099 416.3517 573.55886 416.3517 517.626373 416.3517 461.693888 461.693914 416.351648 517.626311 416.351648 573.558835 416.351648 618.901049 461.693888 618.901049 517.626373 618.901049 573.55886 573.558835 618.901099 517.626311 618.901099L517.626311 618.901099Z" fill="#ffffff"></path></g></g></svg>